<?xml version="1.0" encoding="UTF-8"?>
<svg version="1.1" xmlns="http://www.w3.org/2000/svg" width="446" height="492">
<path d="M0 0 C1.9706529 -0.00299639 3.94130523 -0.00640002 5.91195679 -0.01017761 C11.23845784 -0.01897165 16.5649428 -0.02135374 21.89145041 -0.0219934 C25.22522363 -0.02270636 28.55899282 -0.0248453 31.89276505 -0.02749062 C43.53984078 -0.03672787 55.1869051 -0.04082742 66.83398438 -0.04003906 C77.66474193 -0.03943827 88.49544969 -0.04999458 99.32619464 -0.06578273 C108.64883783 -0.07888486 117.97146478 -0.08422186 127.29411709 -0.08358365 C132.85166309 -0.08332951 138.40916475 -0.08613447 143.96670151 -0.0967617 C149.19525757 -0.10648812 154.42372731 -0.10649087 159.65228653 -0.09924507 C161.5625547 -0.09820496 163.47282838 -0.10052774 165.38308716 -0.10660553 C191.87607813 -0.1853873 191.87607813 -0.1853873 203.47705078 5.20776367 C204.14260986 5.5079541 204.80816895 5.80814453 205.49389648 6.11743164 C213.15149631 9.7301821 219.88273345 14.60783137 225.87158203 20.60620117 C228.38899871 23.22393094 228.38899871 23.22393094 231.40673828 25.47338867 C234.98005338 28.40428436 237.18545754 31.96069034 239.53955078 35.89526367 C240.19129272 36.97022095 240.19129272 36.97022095 240.85620117 38.06689453 C250.50538769 54.18299182 251.86765501 69.67341227 251.80273438 88.10546875 C251.80680898 90.06860138 251.81215581 92.03173172 251.81866455 93.99485779 C251.83224097 99.28432376 251.82707906 104.57361249 251.81752729 109.86308122 C251.80987697 115.42798698 251.81699141 120.99287861 251.82168579 126.55778503 C251.82712916 135.90248305 251.81999051 145.24710972 251.80566406 154.59179688 C251.7893547 165.35327536 251.79461941 176.11458313 251.81114328 186.87605745 C251.8248159 196.1564093 251.82664929 205.43671016 251.81882727 214.71706885 C251.81418051 220.24174935 251.81344219 225.76634998 251.82343674 231.29102516 C251.83218815 236.49097501 251.82593735 241.69070781 251.80875397 246.89063454 C251.80483171 248.78428794 251.80584867 250.67796004 251.81254196 252.57160568 C251.91348278 284.06572407 251.91348278 284.06572407 244.22705078 297.27026367 C243.85902344 297.95217773 243.49099609 298.6340918 243.11181641 299.33666992 C242.23576689 300.95224175 241.32893017 302.55107253 240.41455078 304.14526367 C239.75455078 304.14526367 239.09455078 304.14526367 238.41455078 304.14526367 C238.26723511 305.26831909 238.26723511 305.26831909 238.11694336 306.4140625 C237.324581 309.49510447 236.41661227 310.634941 234.17626953 312.84448242 C233.52078125 313.49610352 232.86529297 314.14772461 232.18994141 314.8190918 C231.5009375 315.48360352 230.81193359 316.14811523 230.10205078 316.83276367 C229.42464844 317.50887695 228.74724609 318.18499023 228.04931641 318.8815918 C224.94659073 321.92972405 222.34084142 324.24577417 218.41455078 326.14526367 C217.83576172 326.76272461 217.25697266 327.38018555 216.66064453 328.01635742 C213.60991046 330.90792276 210.2684665 332.45461237 206.47705078 334.20776367 C205.72359375 334.55846924 204.97013672 334.9091748 204.19384766 335.27050781 C189.16928269 342.03696886 173.73109984 342.29672163 157.56005859 342.30639648 C155.75046184 342.31103139 153.94086604 342.31605695 152.13127136 342.32144165 C147.23179056 342.33450843 142.33232344 342.34100014 137.43282795 342.34545231 C134.36199323 342.34839412 131.29116215 342.3525011 128.22032928 342.35695648 C118.58437438 342.37062035 108.94842791 342.38029075 99.312464 342.38415837 C88.24259122 342.3886275 77.17284262 342.40612675 66.10300756 342.43515897 C57.51318214 342.45689323 48.92339135 342.46686898 40.33353877 342.46819949 C35.21945451 342.46923975 30.10548714 342.47497847 24.99143219 342.4930191 C20.16830755 342.50970278 15.3453851 342.51155878 10.52224159 342.5028801 C8.77013666 342.50212026 7.01801992 342.50630962 5.26594353 342.51633835 C-4.15526382 342.56701959 -13.33391282 342.11087901 -22.67340088 340.81048584 C-23.51634193 340.69415904 -24.35928298 340.57783225 -25.22776771 340.45798039 C-41.10013417 338.04125589 -52.48160867 331.5416659 -64.58544922 321.14526367 C-65.22224609 320.66573242 -65.85904297 320.18620117 -66.51513672 319.69213867 C-76.88705921 311.75785695 -84.08135203 298.40601896 -87.27294922 285.95776367 C-87.485 285.1643457 -87.69705078 284.37092773 -87.91552734 283.5534668 C-88.48336227 281.42005547 -89.0397308 279.28442754 -89.58544922 277.14526367 C-89.75791263 276.6115427 -89.93037603 276.07782173 -90.10806561 275.5279274 C-90.80681487 272.04040815 -90.73346703 268.56941182 -90.73262024 265.02728271 C-90.73629693 264.20210939 -90.73997362 263.37693606 -90.74376172 262.52675748 C-90.75478824 259.75733398 -90.75864076 256.98794802 -90.76245117 254.21850586 C-90.76871693 252.23404827 -90.77536384 250.24959185 -90.78236389 248.26513672 C-90.80340501 241.74081234 -90.81377091 235.21648775 -90.82373047 228.69213867 C-90.82777894 226.44263954 -90.83189589 224.19314054 -90.83608055 221.94364166 C-90.85513759 211.36742083 -90.86936379 200.79120696 -90.87769252 190.21497226 C-90.88744708 178.03054094 -90.91371791 165.84629214 -90.95419341 153.66192508 C-90.98443798 144.23152225 -90.99916955 134.80117146 -91.00247353 125.3707211 C-91.00481581 119.74528228 -91.01366785 114.12003832 -91.03893471 108.49465179 C-91.06236455 103.19224286 -91.06638914 97.89015498 -91.05617332 92.58770752 C-91.05568135 90.65289486 -91.06190054 88.71806561 -91.07572937 86.78330231 C-91.15583807 74.89984073 -90.09016264 64.5429797 -86.58544922 53.14526367 C-86.27434361 52.09376507 -85.96323801 51.04226646 -85.64270496 49.95890427 C-83.39549928 42.64836096 -79.35650135 37.04888331 -74.58544922 31.14526367 C-73.94736328 30.3537793 -73.30927734 29.56229492 -72.65185547 28.74682617 C-68.18307782 23.4227341 -68.18307782 23.4227341 -65.50732422 22.18041992 C-63.07451376 20.8700647 -62.78192626 19.58441377 -61.58544922 17.14526367 C-59.66748047 15.58276367 -59.66748047 15.58276367 -57.39794922 14.14526367 C-56.29386719 13.43370117 -56.29386719 13.43370117 -55.16748047 12.70776367 C-49.6610693 9.37559352 -44.29299572 6.42317387 -38.33544922 3.95776367 C-37.13404297 3.44858398 -35.93263672 2.9394043 -34.69482422 2.41479492 C-23.92989717 -1.33103278 -11.24986668 -0.00342489 0 0 Z " fill="#084252" transform="translate(140.58544921875,70.854736328125)"/>
<path d="M0 0 C4.41653692 -0.08834886 8.83284148 -0.14083987 13.25 -0.1875 C15.10238281 -0.22520508 15.10238281 -0.22520508 16.9921875 -0.26367188 C27.74537537 -0.34856546 37.27640388 1.35919276 47 6 C46.67 6.99 46.34 7.98 46 9 C43.43431322 9.81336458 40.99776798 10.44833044 38.375 11 C28.39867469 12.82878626 28.39867469 12.82878626 21 19 C19.16015625 20.1328125 19.16015625 20.1328125 17.0625 21.125 C16.37285156 21.45757812 15.68320313 21.79015625 14.97265625 22.1328125 C13 23 13 23 10 24 C10 24.66 10 25.32 10 26 C8.8553125 26.8971875 8.8553125 26.8971875 7.6875 27.8125 C4.91362027 30.07030908 3.7844634 31.95154169 2 35 C1.21625 35.7425 0.4325 36.485 -0.375 37.25 C-5.47839629 42.59641516 -8.32883417 48.8595642 -10 56 C-10.66 56 -11.32 56 -12 56 C-12.185625 57.36125 -12.185625 57.36125 -12.375 58.75 C-12.68468896 61.01207585 -13.04814625 63.23227807 -13.51171875 65.46875 C-16.13326556 78.70663178 -17.21648374 95.87428357 -11.9296875 108.5703125 C-11 111 -11 111 -11 115 C-10.34 115 -9.68 115 -9 115 C-8.70867187 115.61746094 -8.41734375 116.23492187 -8.1171875 116.87109375 C-5.49300838 122.29274683 -2.62116479 127.27241239 0.86328125 132.1875 C2 134 2 134 2 136 C2.56074219 136.23976563 3.12148437 136.47953125 3.69921875 136.7265625 C6.48801241 138.27010534 8.5003706 140.1830285 10.8125 142.375 C17.17156492 148.17787849 23.68349546 151.40309717 31.546875 154.8515625 C34 156 34 156 37 158 C45.16735709 159.98350101 53.63615279 160.48737711 62 161 C62 161.66 62 162.32 62 163 C59.4385343 165.29648649 58.52032428 166 55 166 C55 166.66 55 167.32 55 168 C54.16855469 168.26554688 53.33710938 168.53109375 52.48046875 168.8046875 C50.85044922 169.33449219 50.85044922 169.33449219 49.1875 169.875 C47.56908203 170.39707031 47.56908203 170.39707031 45.91796875 170.9296875 C42.86684198 171.91959653 42.86684198 171.91959653 40 174 C19.15992856 179.66458318 -6.00923689 177.18029432 -25 167 C-25.78632813 166.60941406 -26.57265625 166.21882812 -27.3828125 165.81640625 C-32.85152571 162.98935959 -37.8015656 159.54163067 -42 155 C-42 154.34 -42 153.68 -42 153 C-42.88171875 152.59007812 -42.88171875 152.59007812 -43.78125 152.171875 C-49.59050658 149.10360568 -53.66016258 144.60615567 -57 139 C-57.86625 137.6696875 -57.86625 137.6696875 -58.75 136.3125 C-60 134 -60 134 -60 131 C-60.66 131 -61.32 131 -62 131 C-65.18344126 126.72061995 -66.55921767 121.7778136 -68.125 116.75 C-68.38925781 115.94175781 -68.65351562 115.13351562 -68.92578125 114.30078125 C-71.78082697 105.24289507 -72.18094295 96.51120543 -72.1875 87.0625 C-72.19974609 86.13759766 -72.21199219 85.21269531 -72.22460938 84.25976562 C-72.24351407 75.26743424 -70.68091813 67.25457275 -67.5625 58.8125 C-67.12679687 57.63042969 -66.69109375 56.44835937 -66.2421875 55.23046875 C-64.91322254 51.77432402 -63.52598496 48.37322992 -62 45 C-61.34 45 -60.68 45 -60 45 C-59.67 43.35 -59.34 41.7 -59 40 C-58.34 40 -57.68 40 -57 40 C-56.79375 39.34 -56.5875 38.68 -56.375 38 C-54.50875748 33.92819814 -52.02438473 30.31203002 -49 27 C-48.34 27 -47.68 27 -47 27 C-46.67 26.01 -46.34 25.02 -46 24 C-41.54285714 20 -41.54285714 20 -39 20 C-39 19.34 -39 18.68 -39 18 C-37.68 17.67 -36.36 17.34 -35 17 C-35 16.34 -35 15.68 -35 15 C-30.57221156 12.25477117 -27.28137429 10.51525603 -22 10 C-22 9.34 -22 8.68 -22 8 C-18.535 7.505 -18.535 7.505 -15 7 C-15 6.34 -15 5.68 -15 5 C-13.35 5 -11.7 5 -10 5 C-10 4.34 -10 3.68 -10 3 C-6.7 2.67 -3.4 2.34 0 2 C0 1.34 0 0.68 0 0 Z " fill="#FAF5C2" transform="translate(188,154)"/>
<path d="M0 0 C4.62575829 2.92890023 8.22118771 6.46023888 11.2265625 11.04296875 C11.2265625 11.70296875 11.2265625 12.36296875 11.2265625 13.04296875 C11.8865625 13.04296875 12.5465625 13.04296875 13.2265625 13.04296875 C13.9071875 14.49703125 13.9071875 14.49703125 14.6015625 15.98046875 C15.88442471 19.11376457 15.88442471 19.11376457 18.2265625 20.04296875 C18.2265625 21.03296875 18.2265625 22.02296875 18.2265625 23.04296875 C18.8865625 23.04296875 19.5465625 23.04296875 20.2265625 23.04296875 C23.69802617 39.68739725 22.80312854 52.88983667 15.2265625 68.04296875 C14.5665625 68.04296875 13.9065625 68.04296875 13.2265625 68.04296875 C13.2265625 69.03296875 13.2265625 70.02296875 13.2265625 71.04296875 C11.0390625 73.41796875 11.0390625 73.41796875 8.2265625 76.04296875 C7.3396875 76.97109375 6.4528125 77.89921875 5.5390625 78.85546875 C3.2265625 81.04296875 3.2265625 81.04296875 1.2265625 81.04296875 C1.2265625 81.70296875 1.2265625 82.36296875 1.2265625 83.04296875 C-0.7734375 84.04296875 -2.7734375 85.04296875 -4.7734375 86.04296875 C-5.37671875 86.37941406 -5.98 86.71585937 -6.6015625 87.0625 C-17.74438867 93.10952152 -29.71978362 93.34213871 -41.76171875 90.01171875 C-53.35561415 86.28242425 -63.78437192 80.52059261 -70.03125 69.70703125 C-70.7734375 68.04296875 -70.7734375 68.04296875 -70.7734375 66.04296875 C-71.4334375 66.04296875 -72.0934375 66.04296875 -72.7734375 66.04296875 C-73.1034375 63.73296875 -73.4334375 61.42296875 -73.7734375 59.04296875 C-74.4334375 59.04296875 -75.0934375 59.04296875 -75.7734375 59.04296875 C-79.63010265 43.78848069 -78.15894911 29.3328758 -71.7734375 15.04296875 C-71.1134375 15.04296875 -70.4534375 15.04296875 -69.7734375 15.04296875 C-69.3403125 14.14578125 -69.3403125 14.14578125 -68.8984375 13.23046875 C-67.7734375 11.04296875 -67.7734375 11.04296875 -65.7734375 8.04296875 C-65.1134375 8.04296875 -64.4534375 8.04296875 -63.7734375 8.04296875 C-63.4434375 7.05296875 -63.1134375 6.06296875 -62.7734375 5.04296875 C-62.1134375 5.04296875 -61.4534375 5.04296875 -60.7734375 5.04296875 C-60.7734375 4.38296875 -60.7734375 3.72296875 -60.7734375 3.04296875 C-55.36167279 -0.95703125 -55.36167279 -0.95703125 -52.7734375 -0.95703125 C-52.7734375 -1.61703125 -52.7734375 -2.27703125 -52.7734375 -2.95703125 C-33.58329657 -9.39204857 -18.35155524 -9.54199491 0 0 Z " fill="#FBF6C3" transform="translate(276.7734375,195.95703125)"/>
<path d="M0 0 C1.9706529 -0.00299639 3.94130523 -0.00640002 5.91195679 -0.01017761 C11.23845784 -0.01897165 16.5649428 -0.02135374 21.89145041 -0.0219934 C25.22522363 -0.02270636 28.55899282 -0.0248453 31.89276505 -0.02749062 C43.53984078 -0.03672787 55.1869051 -0.04082742 66.83398438 -0.04003906 C77.66474193 -0.03943827 88.49544969 -0.04999458 99.32619464 -0.06578273 C108.64883783 -0.07888486 117.97146478 -0.08422186 127.29411709 -0.08358365 C132.85166309 -0.08332951 138.40916475 -0.08613447 143.96670151 -0.0967617 C149.19525757 -0.10648812 154.42372731 -0.10649087 159.65228653 -0.09924507 C161.5625547 -0.09820496 163.47282838 -0.10052774 165.38308716 -0.10660553 C191.87607813 -0.1853873 191.87607813 -0.1853873 203.47705078 5.20776367 C204.14260986 5.5079541 204.80816895 5.80814453 205.49389648 6.11743164 C213.15149631 9.7301821 219.88273345 14.60783137 225.87158203 20.60620117 C228.38899871 23.22393094 228.38899871 23.22393094 231.40673828 25.47338867 C234.98005338 28.40428436 237.18545754 31.96069034 239.53955078 35.89526367 C240.19129272 36.97022095 240.19129272 36.97022095 240.85620117 38.06689453 C250.50538769 54.18299182 251.86765501 69.67341227 251.80273438 88.10546875 C251.80680898 90.06860138 251.81215581 92.03173172 251.81866455 93.99485779 C251.83224097 99.28432376 251.82707906 104.57361249 251.81752729 109.86308122 C251.80987697 115.42798698 251.81699141 120.99287861 251.82168579 126.55778503 C251.82712916 135.90248305 251.81999051 145.24710972 251.80566406 154.59179688 C251.7893547 165.35327536 251.79461941 176.11458313 251.81114328 186.87605745 C251.8248159 196.1564093 251.82664929 205.43671016 251.81882727 214.71706885 C251.81418051 220.24174935 251.81344219 225.76634998 251.82343674 231.29102516 C251.83218815 236.49097501 251.82593735 241.69070781 251.80875397 246.89063454 C251.80483171 248.78428794 251.80584867 250.67796004 251.81254196 252.57160568 C251.91348278 284.06572407 251.91348278 284.06572407 244.22705078 297.27026367 C243.85902344 297.95217773 243.49099609 298.6340918 243.11181641 299.33666992 C242.23576689 300.95224175 241.32893017 302.55107253 240.41455078 304.14526367 C239.75455078 304.14526367 239.09455078 304.14526367 238.41455078 304.14526367 C238.26723511 305.26831909 238.26723511 305.26831909 238.11694336 306.4140625 C237.324581 309.49510447 236.41661227 310.634941 234.17626953 312.84448242 C233.52078125 313.49610352 232.86529297 314.14772461 232.18994141 314.8190918 C231.5009375 315.48360352 230.81193359 316.14811523 230.10205078 316.83276367 C229.42464844 317.50887695 228.74724609 318.18499023 228.04931641 318.8815918 C224.94659073 321.92972405 222.34084142 324.24577417 218.41455078 326.14526367 C217.83576172 326.76272461 217.25697266 327.38018555 216.66064453 328.01635742 C213.60991046 330.90792276 210.2684665 332.45461237 206.47705078 334.20776367 C205.72359375 334.55846924 204.97013672 334.9091748 204.19384766 335.27050781 C189.14001361 342.05015047 173.68178269 342.29586101 157.48071289 342.29052734 C155.66300386 342.293523 153.84529546 342.29692647 152.02758789 342.30070496 C147.10777853 342.30950982 142.18798659 342.31188165 137.26817012 342.31252074 C134.18732382 342.31323348 131.10648189 342.31537208 128.02563667 342.31801796 C117.25691575 342.32726124 106.48820718 342.3313543 95.71948242 342.33056641 C85.71588672 342.32996657 75.7123451 342.34050262 65.70876306 342.35631007 C57.09353825 342.36943358 48.47833101 342.37474826 39.8630963 342.374111 C34.7296388 342.37385733 29.59622936 342.37663513 24.46278191 342.38728905 C19.62739243 342.39705081 14.79209616 342.39699451 9.95670319 342.38977242 C8.19443944 342.38873639 6.43216964 342.39103014 4.66991615 342.39713287 C-6.24439197 342.43244323 -16.78915723 341.77729813 -27.58544922 340.14526367 C-27.58544922 339.81526367 -27.58544922 339.48526367 -27.58544922 339.14526367 C-26.51384993 339.14710726 -25.44225063 339.14895084 -24.33817863 339.1508503 C1.72598136 339.19523269 27.79013646 339.22810727 53.85432625 339.24888802 C66.45872464 339.25920431 79.06309809 339.27327143 91.66748047 339.29614258 C102.65236454 339.3160656 113.63723055 339.32897754 124.62213218 339.33344066 C130.43951839 339.33604988 136.25685291 339.34219008 142.07422256 339.35672379 C147.54883532 339.37029046 153.02337504 339.37448814 158.49800301 339.37147903 C160.50795832 339.3720296 162.51791605 339.37601247 164.52785683 339.38367462 C167.27151956 339.39362147 170.01490635 339.39123343 172.75857544 339.38577271 C173.55430658 339.39159839 174.35003773 339.39742407 175.16988194 339.40342629 C179.65548137 339.37928754 183.17820663 338.79387597 187.41455078 337.14526367 C189.09569453 336.78122653 190.78341596 336.44587714 192.47705078 336.14526367 C196.00790994 335.47726329 199.09903478 334.55184622 202.41455078 333.14526367 C203.40455078 333.14526367 204.39455078 333.14526367 205.41455078 333.14526367 C205.41455078 332.48526367 205.41455078 331.82526367 205.41455078 331.14526367 C211.16455078 328.14526367 211.16455078 328.14526367 213.41455078 328.14526367 C213.41455078 327.48526367 213.41455078 326.82526367 213.41455078 326.14526367 C215.09423828 324.85620117 215.09423828 324.85620117 217.28955078 323.52026367 C218.00884766 323.07424805 218.72814453 322.62823242 219.46923828 322.16870117 C221.41455078 321.14526367 221.41455078 321.14526367 223.41455078 321.14526367 C223.74455078 320.15526367 224.07455078 319.16526367 224.41455078 318.14526367 C225.07455078 318.14526367 225.73455078 318.14526367 226.41455078 318.14526367 C226.74455078 317.15526367 227.07455078 316.16526367 227.41455078 315.14526367 C228.57024789 314.02355765 229.72672438 312.90264299 230.88720703 311.78588867 C237.93574032 304.21457414 242.91726388 295.13441127 245.41455078 285.14526367 C246.07455078 285.14526367 246.73455078 285.14526367 247.41455078 285.14526367 C248.50947796 274.12419427 248.57613322 263.16924022 248.59155273 252.10498047 C248.59783063 250.10934332 248.60447856 248.1137073 248.61146545 246.11807251 C248.63233984 239.61021717 248.64284795 233.10236202 248.65283203 226.59448242 C248.65688495 224.34217632 248.66100202 222.08987034 248.66518211 219.83756447 C248.68419237 209.25710295 248.6984355 198.67664826 248.70679408 188.09617299 C248.71656962 175.92768236 248.74291515 163.75937347 248.78329498 151.59094685 C248.81353239 142.15187009 248.82826992 132.71284526 248.8315751 123.27372104 C248.83391552 117.65065164 248.84274544 112.02777734 248.86803627 106.40476036 C248.89145805 101.11290204 248.89549392 95.82136543 248.88527489 90.52946854 C248.88478294 88.5994859 248.89100121 86.6694866 248.90483093 84.73955345 C248.99064715 72.04297146 248.60317565 59.48760044 242.77966785 47.88912487 C241.41455078 45.14526367 241.41455078 45.14526367 241.41455078 42.14526367 C240.75455078 42.14526367 240.09455078 42.14526367 239.41455078 42.14526367 C239.06392578 41.32026367 238.71330078 40.49526367 238.35205078 39.64526367 C235.1455154 33.21699605 229.50033767 28.10064577 224.41455078 23.14526367 C223.90794922 22.61674805 223.40134766 22.08823242 222.87939453 21.54370117 C219.62095421 18.14075843 219.62095421 18.14075843 215.41455078 16.14526367 C215.41455078 15.48526367 215.41455078 14.82526367 215.41455078 14.14526367 C214.73263672 13.88616211 214.05072266 13.62706055 213.34814453 13.36010742 C209.37866597 11.71628874 205.54317445 9.78362874 201.73291016 7.79956055 C189.02031012 1.59796413 175.41255145 1.716278 161.62451172 1.78881836 C159.66825265 1.78802585 157.71199375 1.7859236 155.7557373 1.78262329 C150.48325927 1.77752559 145.21097917 1.79095069 139.93853283 1.80815029 C134.40191853 1.8232783 128.86530582 1.8220144 123.32867432 1.82281494 C114.03858092 1.82649724 104.74856186 1.84141394 95.45849609 1.86401367 C83.55258123 1.89291888 71.64672603 1.90324247 59.74077988 1.90769577 C49.47490624 1.91168259 39.20904543 1.92417944 28.94318104 1.93804264 C25.65649507 1.94212926 22.36980956 1.94506106 19.08312225 1.94783783 C13.91200007 1.95275191 8.74091348 1.96299055 3.56980896 1.97727585 C1.67763338 1.98177526 -0.21454696 1.98463189 -2.1067276 1.98568344 C-17.4776818 1.74912854 -17.4776818 1.74912854 -32.58544922 4.14526367 C-32.58544922 4.80526367 -32.58544922 5.46526367 -32.58544922 6.14526367 C-33.29830078 6.33862305 -34.01115234 6.53198242 -34.74560547 6.73120117 C-40.0355825 8.16939143 -45.31880955 9.62378999 -50.58544922 11.14526367 C-50.58544922 11.80526367 -50.58544922 12.46526367 -50.58544922 13.14526367 C-51.90544922 13.47526367 -53.22544922 13.80526367 -54.58544922 14.14526367 C-50.19118178 8.84183745 -44.86885014 6.72261341 -38.58544922 4.14526367 C-37.89064453 3.83331055 -37.19583984 3.52135742 -36.47998047 3.19995117 C-25.34976282 -1.52752272 -11.85745177 -0.00360986 0 0 Z " fill="#ABBFC4" transform="translate(140.58544921875,70.854736328125)"/>
<path d="M0 0 C1.22652625 0.71986305 2.43712324 1.46800368 3.625 2.25 C4.553125 2.848125 5.48125 3.44625 6.4375 4.0625 C10.92606972 8.55106972 11.84281095 12.96760014 12.1875 19.125 C12.02724989 25.51096705 9.94461253 29.61382012 5.625 34.25 C3 36.1875 3 36.1875 0.625 37.25 C0.03460938 37.59160156 -0.55578125 37.93320313 -1.1640625 38.28515625 C-5.69505273 40.26246117 -10.55950147 39.93085455 -15.375 39.25 C-21.43968639 36.69114561 -25.20498707 31.53887599 -28.3046875 25.8984375 C-30.36075666 20.81079191 -30.29397469 16.27025601 -28.70703125 11.0546875 C-26.4785898 5.936084 -22.98972547 2.34432868 -18.375 -0.75 C-12.39853952 -2.74215349 -5.72235533 -2.77942973 0 0 Z " fill="#F6732A" transform="translate(319.375,130.75)"/>
<path d="M0 0 C1.9706529 -0.00299639 3.94130523 -0.00640002 5.91195679 -0.01017761 C11.23845784 -0.01897165 16.5649428 -0.02135374 21.89145041 -0.0219934 C25.22522363 -0.02270636 28.55899282 -0.0248453 31.89276505 -0.02749062 C43.53984078 -0.03672787 55.1869051 -0.04082742 66.83398438 -0.04003906 C77.66474193 -0.03943827 88.49544969 -0.04999458 99.32619464 -0.06578273 C108.64883783 -0.07888486 117.97146478 -0.08422186 127.29411709 -0.08358365 C132.85166309 -0.08332951 138.40916475 -0.08613447 143.96670151 -0.0967617 C149.19525757 -0.10648812 154.42372731 -0.10649087 159.65228653 -0.09924507 C161.5625547 -0.09820496 163.47282838 -0.10052774 165.38308716 -0.10660553 C191.87607813 -0.1853873 191.87607813 -0.1853873 203.47705078 5.20776367 C204.14260986 5.5079541 204.80816895 5.80814453 205.49389648 6.11743164 C213.15149631 9.7301821 219.88273345 14.60783137 225.87158203 20.60620117 C228.38899871 23.22393094 228.38899871 23.22393094 231.40673828 25.47338867 C234.980344 28.40452273 237.18444739 31.96100245 239.53955078 35.89526367 C240.19020508 36.96369507 240.19020508 36.96369507 240.85400391 38.05371094 C246.53233181 47.50502492 250.99376014 56.85068122 250.41455078 68.14526367 C249.75455078 67.81526367 249.09455078 67.48526367 248.41455078 67.14526367 C247.68397327 64.58084788 247.05043515 62.05756667 246.47705078 59.45776367 C245.3235573 54.24093512 243.87508094 49.9331329 241.41455078 45.14526367 C241.41455078 44.15526367 241.41455078 43.16526367 241.41455078 42.14526367 C240.75455078 42.14526367 240.09455078 42.14526367 239.41455078 42.14526367 C239.06392578 41.32026367 238.71330078 40.49526367 238.35205078 39.64526367 C235.1455154 33.21699605 229.50033767 28.10064577 224.41455078 23.14526367 C223.90794922 22.61674805 223.40134766 22.08823242 222.87939453 21.54370117 C219.62095421 18.14075843 219.62095421 18.14075843 215.41455078 16.14526367 C215.41455078 15.48526367 215.41455078 14.82526367 215.41455078 14.14526367 C214.73263672 13.88616211 214.05072266 13.62706055 213.34814453 13.36010742 C209.37866597 11.71628874 205.54317445 9.78362874 201.73291016 7.79956055 C189.02031012 1.59796413 175.41255145 1.716278 161.62451172 1.78881836 C159.66825265 1.78802585 157.71199375 1.7859236 155.7557373 1.78262329 C150.48325927 1.77752559 145.21097917 1.79095069 139.93853283 1.80815029 C134.40191853 1.8232783 128.86530582 1.8220144 123.32867432 1.82281494 C114.03858092 1.82649724 104.74856186 1.84141394 95.45849609 1.86401367 C83.55258123 1.89291888 71.64672603 1.90324247 59.74077988 1.90769577 C49.47490624 1.91168259 39.20904543 1.92417944 28.94318104 1.93804264 C25.65649507 1.94212926 22.36980956 1.94506106 19.08312225 1.94783783 C13.91200007 1.95275191 8.74091348 1.96299055 3.56980896 1.97727585 C1.67763338 1.98177526 -0.21454696 1.98463189 -2.1067276 1.98568344 C-17.4776818 1.74912854 -17.4776818 1.74912854 -32.58544922 4.14526367 C-32.58544922 4.80526367 -32.58544922 5.46526367 -32.58544922 6.14526367 C-33.29830078 6.33862305 -34.01115234 6.53198242 -34.74560547 6.73120117 C-40.0355825 8.16939143 -45.31880955 9.62378999 -50.58544922 11.14526367 C-50.58544922 11.80526367 -50.58544922 12.46526367 -50.58544922 13.14526367 C-51.90544922 13.47526367 -53.22544922 13.80526367 -54.58544922 14.14526367 C-50.19118178 8.84183745 -44.86885014 6.72261341 -38.58544922 4.14526367 C-37.89064453 3.83331055 -37.19583984 3.52135742 -36.47998047 3.19995117 C-25.34976282 -1.52752272 -11.85745177 -0.00360986 0 0 Z " fill="#C2D0D5" transform="translate(140.58544921875,70.854736328125)"/>
<path d="M0 0 C0.33 0.66 0.66 1.32 1 2 C0.01011343 4.27883252 -1.03142112 6.43235734 -2.1875 8.625 C-3.10986353 10.41512625 -4.03204553 12.20534531 -4.9538123 13.99577892 C-5.6219484 15.27575235 -6.30449222 16.54837523 -7.00541097 17.81069481 C-9.64794566 22.72902592 -10.94722226 27.24549625 -11.72673035 32.75534058 C-11.84862769 33.57794463 -11.97052504 34.40054868 -12.09611624 35.24808013 C-13.35522888 44.46500791 -13.4146106 53.62843443 -13.37231445 62.91455078 C-13.3747504 64.82391049 -13.37847743 66.73326892 -13.38337708 68.6426239 C-13.39267358 73.7639106 -13.38346012 78.88500244 -13.37004495 84.00627375 C-13.35862115 89.39251848 -13.36284589 94.77875515 -13.36479187 100.16500854 C-13.36567066 109.194022 -13.35467541 118.22295977 -13.33618164 127.25195312 C-13.31495617 137.67398058 -13.31152026 148.09589783 -13.3177436 158.51794255 C-13.32344405 168.58212488 -13.31778767 178.64626864 -13.30657005 188.7104454 C-13.30193965 192.97895907 -13.30104335 197.24744902 -13.3031559 201.51596451 C-13.30504418 206.53779661 -13.29689347 211.55951699 -13.2810955 216.58132362 C-13.27686749 218.41909511 -13.27599208 220.25687795 -13.27878571 222.09465218 C-13.28202943 224.61075872 -13.27287152 227.12653594 -13.26069641 229.64260864 C-13.26447573 230.36216771 -13.26825506 231.08172678 -13.27214891 231.82309067 C-13.23310178 236.41234397 -12.55804771 240.5739121 -11.44054192 245.02599227 C-10.91425709 247.3842022 -10.84467574 249.59247405 -11 252 C-15.10820822 245.83768767 -15.29701542 238.50933627 -15.26742554 231.28074646 C-15.27195665 230.45130101 -15.27648776 229.62185556 -15.28115618 228.76727539 C-15.29372349 226.01333055 -15.29218479 223.25958541 -15.29052734 220.50561523 C-15.29651753 218.52041879 -15.30332421 216.53522466 -15.31088257 214.55003357 C-15.3285034 209.17361809 -15.3332364 203.79726633 -15.33451414 198.42082477 C-15.33593893 195.05520709 -15.34021483 191.68960545 -15.34550858 188.32399178 C-15.36399848 176.56323347 -15.37218081 164.80252041 -15.37060547 153.04174805 C-15.36940554 142.11105551 -15.39048147 131.1805609 -15.4220928 120.2499184 C-15.44832619 110.84063815 -15.45896975 101.43142225 -15.45769465 92.02210575 C-15.45718694 86.41352025 -15.46276379 80.80511061 -15.48405075 75.19656181 C-15.50355149 69.91459062 -15.50347731 64.63296086 -15.48901749 59.35097694 C-15.48694264 57.42422862 -15.49155018 55.49745826 -15.5037384 53.57074738 C-15.57381119 41.71537753 -14.49943214 31.37026673 -11 20 C-10.67803839 18.92712958 -10.35607677 17.85425917 -10.02435875 16.74887753 C-7.95341105 10.10098461 -4.5750878 5.20480494 0 0 Z " fill="#E3E9EB" transform="translate(65,104)"/>
<path d="M0 0 C6.15296104 -0.45181957 10.56957288 1.00419642 16.1875 3.4375 C17.02104004 3.79368408 17.85458008 4.14986816 18.71337891 4.5168457 C27.02420101 8.21581245 34.00060572 12.98143929 40.4453125 19.45703125 C42.97367614 22.07685087 42.97367614 22.07685087 45.9921875 24.328125 C49.56579322 27.25925905 51.76989661 30.81573878 54.125 34.75 C54.55876953 35.4622876 54.99253906 36.1745752 55.43945312 36.90844727 C61.11778103 46.35976125 65.57920936 55.70541755 65 67 C64.01 66.505 64.01 66.505 63 66 C62.26942249 63.43558421 61.63588436 60.912303 61.0625 58.3125 C59.90900652 53.09567145 58.46053016 48.78786923 56 44 C56 43.01 56 42.02 56 41 C55.34 41 54.68 41 54 41 C53.4740625 39.7625 53.4740625 39.7625 52.9375 38.5 C49.73096462 32.07173238 44.08578689 26.9553821 39 22 C38.49339844 21.47148438 37.98679687 20.94296875 37.46484375 20.3984375 C34.20640343 16.99549476 34.20640343 16.99549476 30 15 C30 14.34 30 13.68 30 13 C29.32582031 12.7421875 28.65164063 12.484375 27.95703125 12.21875 C23.81816993 10.51290491 19.80622602 8.54299798 15.79101562 6.56640625 C12.43906662 4.96434652 9.27098661 3.74469893 5.64453125 2.90625 C2 2 2 2 0 0 Z " fill="#D1DCDF" transform="translate(326,72)"/>
<path d="M0 0 C0.33 0 0.66 0 1 0 C-0.00382974 12.65353801 -3.07707859 21.86680815 -9 33 C-9.66 33 -10.32 33 -11 33 C-11.020625 33.680625 -11.04125 34.36125 -11.0625 35.0625 C-12.46887896 39.46915407 -15.6309507 41.94762374 -19 45 C-19.33 44.34 -19.66 43.68 -20 43 C-18.93795085 41.47885179 -17.87533376 39.95810011 -16.8125 38.4375 C-16.173125 37.51582031 -15.53375 36.59414063 -14.875 35.64453125 C-13.80618751 34.13706029 -12.71536111 32.64342791 -11.5625 31.19921875 C-7.48573659 26.06504483 -5.83161106 20.23157058 -4 14 C-3.34 14 -2.68 14 -2 14 C-1.90912109 12.60974609 -1.90912109 12.60974609 -1.81640625 11.19140625 C-1.73261719 9.99386719 -1.64882813 8.79632813 -1.5625 7.5625 C-1.48128906 6.36753906 -1.40007812 5.17257812 -1.31640625 3.94140625 C-1 1 -1 1 0 0 Z " fill="#CCD8DB" transform="translate(390,342)"/>
<path d="M0 0 C3.31009534 1.10336511 3.595444 1.47473439 5.33984375 4.28125 C5.76136719 4.95406006 6.18289063 5.62687012 6.6171875 6.32006836 C7.27074219 7.39913452 7.27074219 7.39913452 7.9375 8.5 C8.38480469 9.23033447 8.83210938 9.96066895 9.29296875 10.71313477 C15.04467149 20.22776214 19.58441263 29.60395379 19 41 C18.34 40.67 17.68 40.34 17 40 C16.26942249 37.43558421 15.63588436 34.912303 15.0625 32.3125 C13.90900652 27.09567145 12.46053016 22.78786923 10 18 C10 17.01 10 16.02 10 15 C9.34 15 8.68 15 8 15 C7.4121875 13.6696875 7.4121875 13.6696875 6.8125 12.3125 C5.14965601 8.89045649 5.14965601 8.89045649 2.3125 6.375 C0 4 0 4 0 0 Z " fill="#DDE6E8" transform="translate(372,98)"/>
<path d="M0 0 C4.41653692 -0.08834886 8.83284148 -0.14083987 13.25 -0.1875 C15.10238281 -0.22520508 15.10238281 -0.22520508 16.9921875 -0.26367188 C24.93294275 -0.32636205 32.50964175 0.12847475 40 3 C40.495 3.99 40.495 3.99 41 5 C38.87439563 4.69163768 36.74952935 4.37818386 34.625 4.0625 C33.44164062 3.88847656 32.25828125 3.71445313 31.0390625 3.53515625 C28 3 28 3 26 2 C23.15464045 1.8736049 20.34572002 1.80964199 17.5 1.8125 C16.68426514 1.81330566 15.86853027 1.81411133 15.02807617 1.81494141 C6.52578135 1.90122477 -0.85963915 3.65181898 -9 6 C-10.99488234 6.36270588 -12.9937811 6.70640699 -15 7 C-15 6.34 -15 5.68 -15 5 C-13.35 5 -11.7 5 -10 5 C-10 4.34 -10 3.68 -10 3 C-6.7 2.67 -3.4 2.34 0 2 C0 1.34 0 0.68 0 0 Z " fill="#91A892" transform="translate(188,154)"/>
<path d="M0 0 C0.33 0.66 0.66 1.32 1 2 C0.01011343 4.27883252 -1.03142112 6.43235734 -2.1875 8.625 C-3.12736198 10.4490873 -4.06696761 12.27329263 -5.00439453 14.09863281 C-5.67247102 15.37449836 -6.36139001 16.63964877 -7.06982422 17.89355469 C-9.93504672 23.14844409 -10.97910373 28.0958415 -11.75 34 C-11.87503906 34.87011719 -12.00007813 35.74023438 -12.12890625 36.63671875 C-12.43167185 38.75607792 -12.71761438 40.87782926 -13 43 C-13.33 43 -13.66 43 -14 43 C-15.56846052 29.58094889 -11.38372216 13.90319629 -3.0625 3.1875 C-2.07190316 2.09675491 -1.06427298 1.01898477 0 0 Z " fill="#BBCBCF" transform="translate(65,104)"/>
<path d="M0 0 C3 3.625 3 3.625 3 7 C3.66 7 4.32 7 5 7 C5.18433594 7.58265625 5.36867188 8.1653125 5.55859375 8.765625 C7.97512961 15.59636637 11.60392798 20.82195215 16.07421875 26.43359375 C18 29 18 29 19 32 C14.77162402 30.49123857 12.87136114 27.40954239 10.5 23.8125 C10.10417725 23.22170654 9.70835449 22.63091309 9.30053711 22.0222168 C8.19067337 20.35454946 7.09485096 18.67756169 6 17 C5.53722656 16.319375 5.07445312 15.63875 4.59765625 14.9375 C1.63995918 10.29447366 0.81817523 5.35043536 0 0 Z " fill="#C4D2D5" transform="translate(54,356)"/>
<path d="M0 0 C0.99 0.33 1.98 0.66 3 1 C2.21625 1.20625 1.4325 1.4125 0.625 1.625 C-2.93100215 3.48766779 -2.82466664 5.2536249 -4 9 C-6.88895031 12.42112537 -8.70962201 14.03120497 -13 15 C-15.22977996 16.97901574 -15.22977996 16.97901574 -17 19 C-15.58330822 13.80546349 -12.07891809 10.33817117 -8 7 C-7.34 7 -6.68 7 -6 7 C-5.7525 6.401875 -5.505 5.80375 -5.25 5.1875 C-3.80517427 2.65905497 -2.51719455 1.44929383 0 0 Z " fill="#8AA6AE" transform="translate(83,85)"/>
<path d="M0 0 C7.05712115 0.94592806 11.85038954 5.74802714 16.625 10.75 C17.305625 11.86375 17.305625 11.86375 18 13 C17.67 13.99 17.34 14.98 17 16 C16.319375 15.319375 15.63875 14.63875 14.9375 13.9375 C14.25880859 13.26267578 14.25880859 13.26267578 13.56640625 12.57421875 C12.43893805 11.44112727 11.32309091 10.29642928 10.21484375 9.14453125 C9.60769531 8.51933594 9.00054687 7.89414063 8.375 7.25 C7.80523437 6.65703125 7.23546875 6.0640625 6.6484375 5.453125 C4.95208885 3.7672981 4.95208885 3.7672981 2 3 C2 2.34 2 1.68 2 1 C1.34 0.67 0.68 0.34 0 0 Z " fill="#CFDBDE" transform="translate(354,84)"/>
<path d="M0 0 C2.60774876 0.59116974 5.2104334 1.197222 7.8125 1.8125 C8.55048828 1.97814453 9.28847656 2.14378906 10.04882812 2.31445312 C16.77217956 3.92684057 16.77217956 3.92684057 19 7 C11.58783319 6.64134677 6.43520528 4.64079463 0 1 C0 0.67 0 0.34 0 0 Z " fill="#D3DEE1" transform="translate(93,403)"/>
<path d="M0 0 C0.66 0.33 1.32 0.66 2 1 C-2.03523352 5.81123996 -6.04467233 10.13242719 -11 14 C-11 10.47967572 -10.29648649 9.5614657 -8 7 C-7.34 7 -6.68 7 -6 7 C-5.67 6.01 -5.34 5.02 -5 4 C-3.37667033 2.61423077 -1.71275535 1.27358732 0 0 Z " fill="#BEC9A6" transform="translate(147,174)"/>
<path d="M0 0 C0.33 1.32 0.66 2.64 1 4 C0.34 4 -0.32 4 -1 4 C-1.020625 4.680625 -1.04125 5.36125 -1.0625 6.0625 C-2.46887896 10.46915407 -5.6309507 12.94762374 -9 16 C-9.33 15.34 -9.66 14.68 -10 14 C-8.8966898 12.41606974 -7.79231456 10.83288132 -6.6875 9.25 C-5.76517578 7.92742187 -5.76517578 7.92742187 -4.82421875 6.578125 C-3.25166935 4.35567831 -1.64631488 2.16807006 0 0 Z " fill="#BCCCD0" transform="translate(380,371)"/>
<path d="M0 0 C0 0.66 0 1.32 0 2 C-0.71285156 2.19335938 -1.42570312 2.38671875 -2.16015625 2.5859375 C-7.45013328 4.02412775 -12.73336033 5.47852632 -18 7 C-18 7.66 -18 8.32 -18 9 C-19.32 9.33 -20.64 9.66 -22 10 C-16.37686658 3.46990958 -8.69766365 0 0 0 Z " fill="#B5C7CC" transform="translate(108,75)"/>
<path d="M0 0 C0 3 0 3 -1.0625 4.5 C-7.6619073 9.60921856 -13.94633865 9.35705888 -22 9 C-22.33 8.34 -22.66 7.68 -23 7 C-21.72125 7.061875 -20.4425 7.12375 -19.125 7.1875 C-12.66404397 7.17729312 -6.4134777 6.01123142 -1.375 1.8125 C-0.92125 1.214375 -0.4675 0.61625 0 0 Z " fill="#8A5C3C" transform="translate(326,161)"/>
<path d="M0 0 C3.74592831 1.24864277 4.24472985 2.48822934 6.25 5.8125 C6.79140625 6.68519531 7.3328125 7.55789062 7.890625 8.45703125 C9 11 9 11 8.671875 13.32421875 C8.45015625 13.87722656 8.2284375 14.43023437 8 15 C7.4121875 13.6696875 7.4121875 13.6696875 6.8125 12.3125 C5.14965601 8.89045649 5.14965601 8.89045649 2.3125 6.375 C0 4 0 4 0 0 Z " fill="#D4DEE1" transform="translate(372,98)"/>
<path d="M0 0 C3.82852379 1.51761303 5.73321866 3.79343415 8.25 7 C8.95640625 7.886875 9.6628125 8.77375 10.390625 9.6875 C12 12 12 12 12 14 C7.93881113 12.47248076 6.20601749 9.92595448 3.75 6.4375 C3.04359375 5.44621094 2.3371875 4.45492188 1.609375 3.43359375 C0 1 0 1 0 0 Z " fill="#D3DDE0" transform="translate(61,374)"/>
<path d="M0 0 C5.8022175 -0.36263859 9.63999211 0.74315457 15 3 C15 3.33 15 3.66 15 4 C13.24908981 3.91245449 11.49920449 3.80426627 9.75 3.6875 C8.77546875 3.62949219 7.8009375 3.57148437 6.796875 3.51171875 C3.74658389 2.95363476 2.29288724 2.03630224 0 0 Z " fill="#DFE7E9" transform="translate(326,72)"/>
<path d="M0 0 C1.4540625 0.0309375 1.4540625 0.0309375 2.9375 0.0625 C2.6075 0.7225 2.2775 1.3825 1.9375 2.0625 C-3.58679247 3.80701341 -8.29100374 4.26862487 -14.0625 4.0625 C-14.0625 3.7325 -14.0625 3.4025 -14.0625 3.0625 C-13.35222656 2.92972656 -12.64195312 2.79695313 -11.91015625 2.66015625 C-10.99105469 2.48355469 -10.07195312 2.30695313 -9.125 2.125 C-7.75021484 1.86396484 -7.75021484 1.86396484 -6.34765625 1.59765625 C-3.2168819 0.86446636 -3.48998695 0.07122422 0 0 Z " fill="#97B1B8" transform="translate(331.0625,407.9375)"/>
<path d="M0 0 C4.32542465 1.99634984 8.84037965 4.10243943 11.375 8.25 C11.58125 8.8275 11.7875 9.405 12 10 C8.78727751 8.56006357 6.3793336 6.76981628 3.75 4.4375 C3.04359375 3.81746094 2.3371875 3.19742187 1.609375 2.55859375 C1.07828125 2.04425781 0.5471875 1.52992188 0 1 C0 0.67 0 0.34 0 0 Z " fill="#BDCDD1" transform="translate(73,388)"/>
<path d="M0 0 C0 3.20395416 -0.74335022 5.09399739 -2 8 C-2.66 8 -3.32 8 -4 8 C-4.33 8.99 -4.66 9.98 -5 11 C-5.33 10.34 -5.66 9.68 -6 9 C-5.0625 6.375 -5.0625 6.375 -4 4 C-3.34 4 -2.68 4 -2 4 C-1.34 2.68 -0.68 1.36 0 0 Z " fill="#9AAE96" transform="translate(209,207)"/>
<path d="M0 0 C1.32 0.33 2.64 0.66 4 1 C3.67 1.99 3.34 2.98 3 4 C-0.3 4.66 -3.6 5.32 -7 6 C-7 5.34 -7 4.68 -7 4 C-4.36 3.67 -1.72 3.34 1 3 C0.67 2.01 0.34 1.02 0 0 Z " fill="#8AA28E" transform="translate(231,159)"/>
<path d="M0 0 C0.33 0.66 0.66 1.32 1 2 C0.00390625 4.1640625 0.00390625 4.1640625 -1.4375 6.625 C-1.91058594 7.44226563 -2.38367187 8.25953125 -2.87109375 9.1015625 C-3.24363281 9.72804688 -3.61617187 10.35453125 -4 11 C-4.33 10.34 -4.66 9.68 -5 9 C-2.6 2.6 -2.6 2.6 0 0 Z " fill="#AABEC3" transform="translate(65,104)"/>
<path d="M0 0 C0.66 0.33 1.32 0.66 2 1 C-0.3125 3.5 -0.3125 3.5 -3 6 C-3.99 6 -4.98 6 -6 6 C-6 5.34 -6 4.68 -6 4 C-4.03852126 2.61061923 -2.03833424 1.2739589 0 0 Z " fill="#487270" transform="translate(204,174)"/>
<path d="M0 0 C1.32 0 2.64 0 4 0 C6.3125 2.3125 6.3125 2.3125 8 5 C7.67 5.99 7.34 6.98 7 8 C4.35247996 5.42215154 2.05567935 3.08351902 0 0 Z " fill="#BCCCD0" transform="translate(364,92)"/>
<path d="M0 0 C3.8063457 0.67170806 7.35206816 1.72746564 11 3 C7.42355152 4.2380014 4.66305234 3.74926071 1 3 C0.67 2.01 0.34 1.02 0 0 Z " fill="#5E827A" transform="translate(227,283)"/>
<path d="M0 0 C0.99 0.33 1.98 0.66 3 1 C1.7934375 1.4021875 1.7934375 1.4021875 0.5625 1.8125 C-0.283125 2.204375 -1.12875 2.59625 -2 3 C-2.33 3.99 -2.66 4.98 -3 6 C-3.99 6.33 -4.98 6.66 -6 7 C-4.61990379 3.66476748 -3.15049348 1.81392049 0 0 Z " fill="#DAE2E5" transform="translate(83,85)"/>
<path d="M0 0 C6.52307692 0.61538462 6.52307692 0.61538462 8.9375 2.5625 C9.288125 3.036875 9.63875 3.51125 10 4 C6.44219804 3.39009109 3.3171411 2.4216319 0 1 C0 0.67 0 0.34 0 0 Z " fill="#7A9AA2" transform="translate(102,406)"/>
</svg>
